<svg width="427" height="469" viewBox="0 0 427 469" fill="none" xmlns="http://www.w3.org/2000/svg">
<ellipse cx="214.821" cy="220.954" rx="193.186" ry="202.968" transform="rotate(5.63446 214.821 220.954)" fill="#E33A25"/>
<path d="M372.338 467.478L356.132 357.759C356.132 357.759 342.317 398.17 313.114 395.289C283.911 392.408 283.125 350.556 283.125 350.556C283.125 350.556 264.442 390.487 235.239 387.606C206.036 384.725 202.817 342.633 202.817 342.633C202.817 342.633 186.567 382.804 159.798 380.163C133.029 377.522 124.942 334.95 124.942 334.95C124.942 334.95 110.886 377.795 81.9235 372.48C52.9606 367.165 54.3685 327.988 54.3685 327.988L12.1679 431.944L372.338 467.478Z" fill="#FCA7CF"/>
<path d="M124.942 334.95L54.3685 327.988C54.3685 327.988 52.9606 367.165 81.9235 372.48C110.886 377.795 124.942 334.95 124.942 334.95Z" fill="#F6EDE4"/>
<path d="M202.817 342.633L124.942 334.95C124.942 334.95 133.029 377.522 159.798 380.163C186.567 382.804 202.817 342.633 202.817 342.633Z" fill="#F6EDE4"/>
<path d="M283.125 350.556L202.817 342.633C202.817 342.633 206.036 384.725 235.239 387.606C264.442 390.487 283.125 350.556 283.125 350.556Z" fill="#F6EDE4"/>
<path d="M356.132 357.759L283.125 350.556C283.125 350.556 283.911 392.408 313.114 395.289C342.317 398.17 356.132 357.759 356.132 357.759Z" fill="#F6EDE4"/>
<circle cx="175.799" cy="92.113" r="25.764" transform="rotate(5.63446 175.799 92.113)" fill="#F6EDE4"/>
<circle cx="279.639" cy="102.358" r="25.764" transform="rotate(5.63446 279.639 102.358)" fill="#F6EDE4"/>
<circle cx="345.536" cy="208.532" r="25.764" transform="rotate(5.63446 345.536 208.532)" fill="#F6EDE4"/>
<circle cx="218.621" cy="196.011" r="25.764" transform="rotate(5.63446 218.621 196.011)" fill="#F6EDE4"/>
<circle cx="91.7052" cy="183.489" r="25.764" transform="rotate(5.63446 91.7052 183.489)" fill="#F6EDE4"/>
<circle cx="157.206" cy="280.563" r="25.764" transform="rotate(5.63446 157.206 280.563)" fill="#F6EDE4"/>
<circle cx="261.046" cy="290.808" r="25.764" transform="rotate(5.63446 261.046 290.808)" fill="#F6EDE4"/>
</svg>
