<svg width="209" height="402" viewBox="0 0 209 402" fill="none" xmlns="http://www.w3.org/2000/svg">
<path d="M15.0498 332.306C11.05 336.806 15.0498 340.806 15.0498 340.806L113.05 401.306C113.05 401.306 121.05 403.806 121.05 397.806C121.05 395.859 120.207 385.25 119.069 371.806L32.0738 316.306C24.0047 323.756 16.688 330.463 15.0498 332.306Z" fill="#E33A25"/>
<path d="M115.626 332.306C114.199 316.238 113.05 303.564 113.05 303.564C118.027 303.564 122.865 303.2 127.55 302.498L1.84131 221.306C11.6074 265.1 56.904 289.613 56.9041 291.806C56.9041 292.139 56.235 293.019 55.0653 294.306L115.626 332.306Z" fill="#E33A25"/>
<path d="M0.624646 193.806L153.923 294.306C165.014 288.851 174.704 281.177 182.683 271.806L10.0497 160.214C5.17323 170.484 1.92915 181.784 0.624646 193.806Z" fill="#E33A25"/>
<path d="M19.8542 143.806L193.462 256.306C199.212 246.08 203.337 234.606 205.584 222.306L45.0497 119.889C35.2931 126.311 26.7779 134.401 19.8542 143.806Z" fill="#E33A25"/>
<path d="M101.55 103.306C89.7325 103.306 78.4758 105.195 68.0497 108.701L207.294 193.306C206.191 178.351 201.619 165.924 195.661 155.806L101.55 93.3061V103.306Z" fill="#E33A25"/>
<path d="M101.55 74.3061L161.969 112.806C166.172 106.143 172.878 95.4962 179.889 84.3061L101.55 33.8061V74.3061Z" fill="#E33A25"/>
<path d="M107.55 0.306122C102.55 -1.19388 101.55 3.30612 101.55 3.30612L194.05 61.6021C201.648 49.3438 207.544 39.6537 208.05 38.3061C209.55 34.3061 204.55 32.3061 204.55 32.3061C204.55 32.3061 112.55 1.80612 107.55 0.306122Z" fill="#E33A25"/>
<path d="M101.55 3.30612V33.8061L179.889 84.3061C184.703 76.6232 189.66 68.684 194.05 61.6021L101.55 3.30612Z" fill="#F6EDE4"/>
<path d="M195.661 155.806C180.873 130.693 157.55 119.806 157.55 119.806C157.55 119.806 159.227 117.154 161.969 112.806L101.55 74.3061V93.3061L195.661 155.806Z" fill="#F6EDE4"/>
<path d="M205.584 222.306C206.879 215.22 207.55 207.86 207.55 200.306C207.55 197.914 207.462 195.581 207.294 193.306L68.0497 108.701C59.8214 111.467 52.1105 115.241 45.0497 119.889L205.584 222.306Z" fill="#F6EDE4"/>
<path d="M10.0497 160.214L182.683 271.806C186.729 267.054 190.336 261.864 193.462 256.306L19.8542 143.806C16.0993 148.907 12.8125 154.395 10.0497 160.214Z" fill="#F6EDE4"/>
<path d="M0.0498464 201.806C-0.19558 208.678 0.4753 215.181 1.84131 221.306L127.55 302.498C137.006 301.081 145.837 298.283 153.923 294.306L0.624646 193.806C0.338923 196.439 0.146247 199.107 0.0498464 201.806Z" fill="#F6EDE4"/>
<path d="M32.0738 316.306L119.069 371.806C118.029 359.524 116.742 344.877 115.626 332.306L55.0653 294.306C51.0402 298.736 41.0875 307.984 32.0738 316.306Z" fill="#F6EDE4"/>
</svg>
