<svg width="161" height="162" viewBox="0 0 161 162" fill="none" xmlns="http://www.w3.org/2000/svg">
<path d="M80.5 162C81.9823 162 83.4552 161.96 84.9177 161.88L80.0091 79.4717L25.0335 139.704C39.4719 153.52 59.0018 162 80.5 162Z" fill="#F6EDE4"/>
<path d="M22.7347 25.1098C8.66337 39.9445 0 60.0861 0 82.0189L80.0091 79.4717L22.7347 25.1098Z" fill="#F6EDE4"/>
<path d="M133.425 19.9652C119.275 7.53204 100.762 0 80.5 0C78.6857 0 76.8853 0.0620926 75.1009 0.18425L80.0091 79.4717L133.425 19.9652Z" fill="#F6EDE4"/>
<path d="M139.402 136.212C152.802 121.745 161 102.336 161 81C161 79.4629 160.957 77.9358 160.873 76.4199L80.0091 79.4717L139.402 136.212Z" fill="#F6EDE4"/>
<path d="M0 82.0189C0 126.754 36.0411 162 80.5 162C59.0018 162 39.4719 153.52 25.0335 139.704L80.0091 79.4717L0 82.0189Z" fill="#E33A25"/>
<path d="M84.9177 161.88C106.4 160.711 125.644 151.067 139.402 136.212L80.0091 79.4717L84.9177 161.88Z" fill="#E33A25"/>
<path d="M133.425 19.9652L80.0091 79.4717L160.873 76.4199C159.627 53.9228 149.257 33.8762 133.425 19.9652Z" fill="#E33A25"/>
<path d="M22.7347 25.1098L80.0091 79.4717L75.1009 0.18425C54.5974 1.58787 36.1927 10.9217 22.7347 25.1098Z" fill="#E33A25"/>
</svg>
