<svg width="191" height="111" viewBox="0 0 191 111" fill="none" xmlns="http://www.w3.org/2000/svg">
<path d="M0.872975 101.217C0.872975 101.217 18.6756 107.855 25.6394 107.783C32.6032 107.712 35.8747 104.663 37.9155 100.621C39.9562 96.5794 47.2231 85.4781 44.4823 75.8547C42.8346 70.0695 41.4728 62.459 35.9145 63.0546C30.3561 63.6501 29.1333 66.9295 29.03 74.3618C28.9268 81.7942 39.1772 82.151 46.8962 83.692C61.2893 86.5654 70.9198 80.1315 82.16 70.6934C88.0245 65.7691 91.7301 62.6826 94.714 55.6302C97.2807 49.5639 99.9028 44.9539 97.1994 38.9472C94.6337 33.2466 90.2997 30.3477 84.0737 29.7839C80.938 29.4999 78.1925 28.7183 76.1173 31.0861C73.283 34.32 77.184 38.0134 79.7064 41.4961C83.3029 46.4619 87.4062 47.7737 93.3561 49.254C99.0565 50.6722 102.904 51.0776 108.395 48.992C114.518 46.6666 117.726 43.4111 120.664 37.5577C123.257 32.3895 123.624 28.6626 122.919 22.9233C122.194 17.029 121.097 13.1732 116.924 8.948C113.332 5.31203 109.98 1.02573 105.267 3.00055C100.765 4.88689 100.427 9.85423 100.9 14.7128C101.477 20.6458 105.81 22.8128 110.285 26.7506C117.482 33.0829 123.568 33.857 132.717 36.716C140.256 39.0716 144.616 41.2765 152.505 40.8927C160.425 40.5074 164.864 38.4947 171.864 34.7706C175.692 32.7343 177.981 31.6214 181.099 28.6088C184.573 25.2521 188.102 18.4131 188.102 18.4131" stroke="#F6EDE4" stroke-width="5"/>
</svg>
