<svg width="290" height="148" viewBox="0 0 290 148" fill="none" xmlns="http://www.w3.org/2000/svg">
<path d="M71.7118 82.1351L74.5885 105.287C74.5885 105.287 82.0833 124.521 92.9209 132.094C103.759 139.666 209.989 119.249 216.612 108.334C218.863 104.626 217.791 93.0415 215.395 79.3607C213.881 70.713 211.837 61.2276 209.769 52.3639C205.477 33.9731 203.892 24.6958 201.078 18.2591C198.264 11.8223 191.702 10.3292 191.702 10.3292C191.702 10.3292 96.8539 31.6787 89.6237 32.5184C82.3934 33.3581 75.7697 44.2735 75.7697 44.2735L71.7118 82.1351Z" fill="#E33A25"/>
<path d="M252.623 0.999342L209.769 52.3639C211.837 61.2276 213.881 70.713 215.395 79.3607L283.13 88.9593C283.13 88.9593 291.978 85.865 289.319 77.5308C286.66 69.1966 264.409 8.6493 261.517 3.16056C258.624 -2.32818 252.623 0.999342 252.623 0.999342Z" fill="#F6EDE4"/>
<path d="M74.5885 105.287L71.7118 82.1351C71.7118 82.1351 18.13 54.3497 10.2622 51.3177C2.39443 48.2858 2.85511e-05 60.0252 2.85511e-05 60.0252L3.98124 139.604C3.98124 139.604 4.43264 151.578 12.9997 146.073C21.5667 140.568 74.5885 105.287 74.5885 105.287Z" fill="#F6EDE4"/>
</svg>
