<svg width="111" height="111" viewBox="0 0 111 111" fill="none" xmlns="http://www.w3.org/2000/svg">
<path d="M50.6231 104.239L61.8372 88.4574M61.8372 88.4574L79.463 97.8234M61.8372 88.4574L66.0614 107.448L54.4447 55.2242M42.828 3.00065L47.2283 22.7823M47.2283 22.7823L59.2218 6.82776M47.2283 22.7823L31.1614 13.0696M47.2283 22.7823L54.4447 55.2242M54.4447 55.2242L87.9613 47.7687M54.4447 55.2242L21.7076 62.5063M3.0006 66.6676L21.7076 62.5063M107.448 43.4341L87.9613 47.7687M87.9613 47.7687L102.821 59.4108M87.9613 47.7687L96.309 30.1339M87.9613 47.7687L21.7076 62.5063M21.7076 62.5063L13.9634 79.1765M21.7076 62.5063L7.45096 49.8997M20.0479 32.9805L37.0703 43.3111M43.5827 72.5879L32.8967 90.7429M73.202 65.9993L91.3559 77.7391M66.6896 36.7225L76.9482 20.3234" stroke="#ECE2D2" stroke-width="6" stroke-linecap="round" stroke-linejoin="round"/>
</svg>
