<svg width="144" height="189" viewBox="0 0 144 189" fill="none" xmlns="http://www.w3.org/2000/svg">
<path d="M107.506 81.2099C107.506 81.2099 86.6517 102.664 84.045 105.263C81.4383 107.862 84.045 113.061 84.045 113.061L114.023 144.25C114.023 144.25 119.236 162.443 107.506 179.338C95.7753 196.232 64.4945 185.835 64.4945 185.835C64.4945 185.835 9.75295 135.153 3.2361 126.056C-3.28075 116.959 0.629364 94.867 9.75295 85.7702C18.8765 76.6733 61.3363 37.6869 61.3363 37.6869L107.506 81.2099Z" fill="#FCA7CF"/>
<path d="M144 67.5765L119.236 92.2679L107.506 81.2099L61.3363 37.6869L47.5507 24.6914L76.2248 0L144 67.5765Z" fill="#E33A25"/>
</svg>
