<svg width="192" height="253" viewBox="0 0 192 253" fill="none" xmlns="http://www.w3.org/2000/svg">
<path d="M48.6591 108.71C48.6591 108.71 76.4643 137.429 79.94 140.908C83.4156 144.387 79.94 151.346 79.94 151.346L39.97 193.096C39.97 193.096 33.0187 217.451 48.6591 240.066C64.2996 262.681 106.007 248.764 106.007 248.764C106.007 248.764 178.996 180.919 187.685 168.742C196.374 156.565 191.161 126.991 178.996 114.814C166.831 102.637 110.218 50.4486 110.218 50.4486L48.6591 108.71Z" fill="#FCA7CF"/>
<path d="M0 90.4595L33.0187 123.512L48.6591 108.71L110.218 50.4486L128.599 33.0525L90.3669 0L0 90.4595Z" fill="#E33A25"/>
</svg>
