<svg width="127" height="127" viewBox="0 0 127 127" fill="none" xmlns="http://www.w3.org/2000/svg">
<path d="M28.0261 22.8143C25.0261 25.8143 36.5261 42.3143 35.0261 47.3143C33.5261 52.3143 1.02619 55.3143 0.0261429 62.3143C-0.973907 69.3143 27.0261 77.8143 31.0261 83.3143C35.0262 88.8143 29.0261 126.314 36.5261 126.814C44.0262 127.314 51.5261 105.314 58.5261 102.314C65.5262 99.3143 89.5261 106.314 93.0261 104.314C96.5262 102.314 90.526 81.3143 93.0261 75.8143C95.5262 70.3143 125.526 63.8143 126.026 58.8143C126.526 53.8143 95.0262 47.3143 93.0261 42.3143C91.026 37.3143 104.526 4.3143 99.0261 0.31431C93.5261 -3.68568 56.0262 31.8143 49.5261 31.8143C43.026 31.8143 31.0261 19.8143 28.0261 22.8143Z" fill="#F6EDE4"/>
</svg>
