<svg width="468" height="468" viewBox="0 0 468 468" fill="none" xmlns="http://www.w3.org/2000/svg">
<path fill-rule="evenodd" clip-rule="evenodd" d="M185.603 73.9404C185.603 73.9404 189.683 27.0001 211.319 23.3443C233.821 19.5421 251.422 66.5993 251.422 66.5993C251.422 66.5993 268.573 23.9952 290.067 26.4931C314.275 29.3065 312.345 85.6568 312.345 85.6568C312.345 85.6568 347.331 55.1748 365.234 67.8258C383.462 80.7062 365.78 125.436 365.78 125.436C365.78 125.436 407.74 113.56 419.362 131.392C432.65 151.779 390.213 186.348 390.213 186.348C390.213 186.348 440.62 187.254 443.831 210.198C447.097 233.533 397.005 247.239 397.005 247.239C397.005 247.239 447.67 273.481 437.765 296.387C429.383 315.769 386.593 312.038 386.593 312.038C386.593 312.038 413.695 351.772 398.754 368.352C384.078 384.637 343.236 362.613 343.236 362.613C343.236 362.613 355.356 412.756 334.102 421.303C313.565 429.561 287.351 388.732 287.351 388.732C287.351 388.732 282.22 442.333 258.202 443.689C235.015 444.998 221.532 396.073 221.532 396.073C221.532 396.073 196.834 448.543 173.427 439.223C152.563 430.916 157.395 383.34 157.395 383.34C157.395 383.34 118.428 416.882 100.634 401.603C83.4099 386.814 105.896 343.345 105.896 343.345C105.896 343.345 61.7967 352.754 51.8752 333.461C42.0858 314.425 73.719 283.297 73.719 283.297C73.719 283.297 20.9265 274.671 23.0963 251.159C24.9982 230.548 66.9275 222.406 66.9275 222.406C62.4264 215.812 56.0621 210.55 50.0431 205.573C38.9343 196.389 29.0017 188.176 34.1296 174.359C41.535 154.404 85.0829 156.744 85.0829 156.744C85.0829 156.744 53.993 119.612 67.1145 101.077C80.5246 82.134 126.066 102.456 126.066 102.456C126.066 102.456 113.003 60.8457 129.83 48.3425C149.063 34.0518 185.603 73.9404 185.603 73.9404ZM242.425 327.244C294.02 321.489 331.181 274.999 325.426 223.404C319.672 171.809 273.181 134.648 221.586 140.403C169.991 146.157 132.83 192.648 138.585 244.243C144.339 295.838 190.83 332.999 242.425 327.244Z" fill="#FCA7CF"/>
<path d="M389.87 218.186L374.09 235.71L354.837 222.094L370.4 202.624L389.87 218.186Z" fill="#F6EDE4"/>
<path d="M266.881 369.837L251.101 387.361L231.848 373.745L247.411 354.275L266.881 369.837Z" fill="#F6EDE4"/>
<path d="M115.447 248.794L99.6669 266.318L80.4139 252.702L95.9766 233.232L115.447 248.794Z" fill="#F6EDE4"/>
<path d="M236.49 97.3603L220.71 114.884L201.457 101.268L217.02 81.7976L236.49 97.3603Z" fill="#F6EDE4"/>
<circle cx="149.439" cy="341.556" r="19.5833" transform="rotate(-6.3642 149.439 341.556)" fill="#E33A25"/>
<circle cx="344.065" cy="319.849" r="19.5833" transform="rotate(-6.3642 344.065 319.849)" fill="#E33A25"/>
<circle cx="322.357" cy="125.222" r="19.5833" transform="rotate(-6.3642 322.357 125.222)" fill="#E33A25"/>
<circle cx="127.731" cy="146.93" r="19.5833" transform="rotate(-6.3642 127.731 146.93)" fill="#E33A25"/>
</svg>
